<mxfile host="Electron" modified="2025-02-14T17:11:23.211Z" agent="Mozilla/5.0 (Windows NT 10.0; Win64; x64) AppleWebKit/537.36 (KHTML, like Gecko) draw.io/24.1.0 Chrome/120.0.6099.109 Electron/28.1.0 Safari/537.36" etag="64popg-vnEQKSPyo2gOE" version="24.1.0" type="device">
  <diagram name="Page-1" id="Jo1kWgoQUpfZ1ZnYv95O">
    <mxGraphModel dx="989" dy="577" grid="1" gridSize="10" guides="1" tooltips="1" connect="1" arrows="1" fold="1" page="1" pageScale="1" pageWidth="850" pageHeight="1100" math="0" shadow="0">
      <root>
        <mxCell id="0" />
        <mxCell id="1" parent="0" />
        <mxCell id="OvjvtxKpR9DoMGcmtZmM-3" value="Авторизованный&lt;div&gt;пользователь&lt;br&gt;&lt;br&gt;&lt;/div&gt;" style="shape=umlActor;verticalLabelPosition=bottom;verticalAlign=top;html=1;outlineConnect=0;" vertex="1" parent="1">
          <mxGeometry x="50" y="280" width="30" height="60" as="geometry" />
        </mxCell>
        <mxCell id="OvjvtxKpR9DoMGcmtZmM-4" value="&lt;div&gt;Администратор&lt;br&gt;&lt;/div&gt;" style="shape=umlActor;verticalLabelPosition=bottom;verticalAlign=top;html=1;outlineConnect=0;" vertex="1" parent="1">
          <mxGeometry x="780" y="120" width="30" height="60" as="geometry" />
        </mxCell>
        <mxCell id="OvjvtxKpR9DoMGcmtZmM-5" value="&lt;div&gt;Пользователь с&lt;/div&gt;&lt;div&gt;подпиской&lt;br&gt;&lt;/div&gt;" style="shape=umlActor;verticalLabelPosition=bottom;verticalAlign=top;html=1;outlineConnect=0;" vertex="1" parent="1">
          <mxGeometry x="780" y="320" width="30" height="60" as="geometry" />
        </mxCell>
        <mxCell id="OvjvtxKpR9DoMGcmtZmM-8" value="" style="rounded=0;whiteSpace=wrap;html=1;" vertex="1" parent="1">
          <mxGeometry x="160" y="90" width="540" height="480" as="geometry" />
        </mxCell>
        <mxCell id="OvjvtxKpR9DoMGcmtZmM-9" value="Чаты" style="text;html=1;align=center;verticalAlign=middle;whiteSpace=wrap;rounded=0;" vertex="1" parent="1">
          <mxGeometry x="160" y="90" width="540" height="30" as="geometry" />
        </mxCell>
        <mxCell id="OvjvtxKpR9DoMGcmtZmM-10" value="Отправить текстовое&lt;div&gt;сообщение&lt;/div&gt;" style="ellipse;whiteSpace=wrap;html=1;" vertex="1" parent="1">
          <mxGeometry x="380" y="200" width="90" height="60" as="geometry" />
        </mxCell>
        <mxCell id="OvjvtxKpR9DoMGcmtZmM-11" value="Отправить&lt;div&gt;файл&lt;/div&gt;" style="ellipse;whiteSpace=wrap;html=1;" vertex="1" parent="1">
          <mxGeometry x="380" y="270" width="90" height="60" as="geometry" />
        </mxCell>
        <mxCell id="OvjvtxKpR9DoMGcmtZmM-12" value="Поставить реакцию" style="ellipse;whiteSpace=wrap;html=1;" vertex="1" parent="1">
          <mxGeometry x="380" y="340" width="90" height="60" as="geometry" />
        </mxCell>
        <mxCell id="OvjvtxKpR9DoMGcmtZmM-13" value="Выбрать чат" style="ellipse;whiteSpace=wrap;html=1;" vertex="1" parent="1">
          <mxGeometry x="380" y="130" width="90" height="60" as="geometry" />
        </mxCell>
        <mxCell id="OvjvtxKpR9DoMGcmtZmM-16" value="Начать видео&lt;br&gt;звонок" style="ellipse;whiteSpace=wrap;html=1;" vertex="1" parent="1">
          <mxGeometry x="380" y="410" width="90" height="60" as="geometry" />
        </mxCell>
        <mxCell id="OvjvtxKpR9DoMGcmtZmM-17" style="rounded=0;orthogonalLoop=1;jettySize=auto;html=1;entryX=0;entryY=0.5;entryDx=0;entryDy=0;endArrow=none;endFill=0;" edge="1" parent="1" source="OvjvtxKpR9DoMGcmtZmM-3" target="OvjvtxKpR9DoMGcmtZmM-13">
          <mxGeometry relative="1" as="geometry" />
        </mxCell>
        <mxCell id="OvjvtxKpR9DoMGcmtZmM-18" style="rounded=0;orthogonalLoop=1;jettySize=auto;html=1;entryX=0;entryY=0.5;entryDx=0;entryDy=0;endArrow=none;endFill=0;" edge="1" parent="1" source="OvjvtxKpR9DoMGcmtZmM-3" target="OvjvtxKpR9DoMGcmtZmM-10">
          <mxGeometry relative="1" as="geometry">
            <mxPoint x="90" y="312" as="sourcePoint" />
            <mxPoint x="390" y="150" as="targetPoint" />
          </mxGeometry>
        </mxCell>
        <mxCell id="OvjvtxKpR9DoMGcmtZmM-20" style="rounded=0;orthogonalLoop=1;jettySize=auto;html=1;entryX=0;entryY=0.5;entryDx=0;entryDy=0;endArrow=none;endFill=0;" edge="1" parent="1" source="OvjvtxKpR9DoMGcmtZmM-3" target="OvjvtxKpR9DoMGcmtZmM-11">
          <mxGeometry relative="1" as="geometry">
            <mxPoint x="90" y="315" as="sourcePoint" />
            <mxPoint x="390" y="220" as="targetPoint" />
          </mxGeometry>
        </mxCell>
        <mxCell id="OvjvtxKpR9DoMGcmtZmM-21" style="rounded=0;orthogonalLoop=1;jettySize=auto;html=1;entryX=0;entryY=0.5;entryDx=0;entryDy=0;endArrow=none;endFill=0;" edge="1" parent="1" source="OvjvtxKpR9DoMGcmtZmM-3" target="OvjvtxKpR9DoMGcmtZmM-12">
          <mxGeometry relative="1" as="geometry">
            <mxPoint x="100" y="325" as="sourcePoint" />
            <mxPoint x="400" y="230" as="targetPoint" />
          </mxGeometry>
        </mxCell>
        <mxCell id="OvjvtxKpR9DoMGcmtZmM-22" style="rounded=0;orthogonalLoop=1;jettySize=auto;html=1;entryX=0;entryY=0.5;entryDx=0;entryDy=0;endArrow=none;endFill=0;" edge="1" parent="1" source="OvjvtxKpR9DoMGcmtZmM-3" target="OvjvtxKpR9DoMGcmtZmM-16">
          <mxGeometry relative="1" as="geometry">
            <mxPoint x="110" y="335" as="sourcePoint" />
            <mxPoint x="410" y="240" as="targetPoint" />
          </mxGeometry>
        </mxCell>
        <mxCell id="OvjvtxKpR9DoMGcmtZmM-24" value="Иметь&lt;div&gt;максимум 1&lt;/div&gt;&lt;div&gt;чат&lt;/div&gt;" style="ellipse;whiteSpace=wrap;html=1;" vertex="1" parent="1">
          <mxGeometry x="320" y="490" width="90" height="60" as="geometry" />
        </mxCell>
        <mxCell id="OvjvtxKpR9DoMGcmtZmM-25" value="Иметь&lt;div&gt;максимум 5&lt;/div&gt;&lt;div&gt;чат&lt;/div&gt;" style="ellipse;whiteSpace=wrap;html=1;" vertex="1" parent="1">
          <mxGeometry x="425" y="480" width="90" height="60" as="geometry" />
        </mxCell>
        <mxCell id="OvjvtxKpR9DoMGcmtZmM-26" style="rounded=0;orthogonalLoop=1;jettySize=auto;html=1;entryX=0;entryY=0;entryDx=0;entryDy=0;endArrow=none;endFill=0;" edge="1" parent="1" source="OvjvtxKpR9DoMGcmtZmM-3" target="OvjvtxKpR9DoMGcmtZmM-24">
          <mxGeometry relative="1" as="geometry">
            <mxPoint x="90" y="325" as="sourcePoint" />
            <mxPoint x="390" y="430" as="targetPoint" />
          </mxGeometry>
        </mxCell>
        <mxCell id="OvjvtxKpR9DoMGcmtZmM-27" style="rounded=0;orthogonalLoop=1;jettySize=auto;html=1;entryX=1;entryY=0.5;entryDx=0;entryDy=0;endArrow=none;endFill=0;" edge="1" parent="1" source="OvjvtxKpR9DoMGcmtZmM-5" target="OvjvtxKpR9DoMGcmtZmM-25">
          <mxGeometry relative="1" as="geometry" />
        </mxCell>
        <mxCell id="OvjvtxKpR9DoMGcmtZmM-28" style="rounded=0;orthogonalLoop=1;jettySize=auto;html=1;entryX=1;entryY=0.5;entryDx=0;entryDy=0;endArrow=none;endFill=0;" edge="1" parent="1" source="OvjvtxKpR9DoMGcmtZmM-5" target="OvjvtxKpR9DoMGcmtZmM-16">
          <mxGeometry relative="1" as="geometry">
            <mxPoint x="790" y="482" as="sourcePoint" />
            <mxPoint x="540" y="510" as="targetPoint" />
          </mxGeometry>
        </mxCell>
        <mxCell id="OvjvtxKpR9DoMGcmtZmM-29" style="rounded=0;orthogonalLoop=1;jettySize=auto;html=1;entryX=1;entryY=0.5;entryDx=0;entryDy=0;endArrow=none;endFill=0;" edge="1" parent="1" source="OvjvtxKpR9DoMGcmtZmM-5" target="OvjvtxKpR9DoMGcmtZmM-12">
          <mxGeometry relative="1" as="geometry">
            <mxPoint x="800" y="492" as="sourcePoint" />
            <mxPoint x="550" y="520" as="targetPoint" />
          </mxGeometry>
        </mxCell>
        <mxCell id="OvjvtxKpR9DoMGcmtZmM-30" style="rounded=0;orthogonalLoop=1;jettySize=auto;html=1;entryX=1;entryY=0.5;entryDx=0;entryDy=0;endArrow=none;endFill=0;" edge="1" parent="1" source="OvjvtxKpR9DoMGcmtZmM-5" target="OvjvtxKpR9DoMGcmtZmM-11">
          <mxGeometry relative="1" as="geometry">
            <mxPoint x="810" y="502" as="sourcePoint" />
            <mxPoint x="560" y="530" as="targetPoint" />
          </mxGeometry>
        </mxCell>
        <mxCell id="OvjvtxKpR9DoMGcmtZmM-31" style="rounded=0;orthogonalLoop=1;jettySize=auto;html=1;entryX=1;entryY=0.5;entryDx=0;entryDy=0;endArrow=none;endFill=0;" edge="1" parent="1" source="OvjvtxKpR9DoMGcmtZmM-5" target="OvjvtxKpR9DoMGcmtZmM-10">
          <mxGeometry relative="1" as="geometry">
            <mxPoint x="820" y="512" as="sourcePoint" />
            <mxPoint x="570" y="540" as="targetPoint" />
          </mxGeometry>
        </mxCell>
        <mxCell id="OvjvtxKpR9DoMGcmtZmM-32" style="rounded=0;orthogonalLoop=1;jettySize=auto;html=1;entryX=1;entryY=0.5;entryDx=0;entryDy=0;endArrow=none;endFill=0;" edge="1" parent="1" source="OvjvtxKpR9DoMGcmtZmM-5" target="OvjvtxKpR9DoMGcmtZmM-13">
          <mxGeometry relative="1" as="geometry">
            <mxPoint x="830" y="522" as="sourcePoint" />
            <mxPoint x="580" y="550" as="targetPoint" />
          </mxGeometry>
        </mxCell>
        <mxCell id="OvjvtxKpR9DoMGcmtZmM-33" value="Проверь&lt;div&gt;навыки&lt;/div&gt;&lt;div&gt;человека&lt;/div&gt;" style="ellipse;whiteSpace=wrap;html=1;" vertex="1" parent="1">
          <mxGeometry x="550" y="130" width="90" height="60" as="geometry" />
        </mxCell>
        <mxCell id="OvjvtxKpR9DoMGcmtZmM-35" style="rounded=0;orthogonalLoop=1;jettySize=auto;html=1;entryX=1;entryY=0.5;entryDx=0;entryDy=0;endArrow=none;endFill=0;" edge="1" parent="1" source="OvjvtxKpR9DoMGcmtZmM-4" target="OvjvtxKpR9DoMGcmtZmM-33">
          <mxGeometry relative="1" as="geometry">
            <mxPoint x="790" y="350" as="sourcePoint" />
            <mxPoint x="480" y="150" as="targetPoint" />
          </mxGeometry>
        </mxCell>
        <mxCell id="OvjvtxKpR9DoMGcmtZmM-40" value="" style="endArrow=none;html=1;rounded=0;exitX=0;exitY=1;exitDx=0;exitDy=0;entryX=1;entryY=1;entryDx=0;entryDy=0;" edge="1" parent="1" source="OvjvtxKpR9DoMGcmtZmM-9" target="OvjvtxKpR9DoMGcmtZmM-9">
          <mxGeometry width="50" height="50" relative="1" as="geometry">
            <mxPoint x="470" y="290" as="sourcePoint" />
            <mxPoint x="520" y="240" as="targetPoint" />
          </mxGeometry>
        </mxCell>
        <mxCell id="OvjvtxKpR9DoMGcmtZmM-41" value="Автоперевод&lt;div&gt;сообщений&lt;/div&gt;" style="ellipse;whiteSpace=wrap;html=1;" vertex="1" parent="1">
          <mxGeometry x="560" y="490" width="90" height="60" as="geometry" />
        </mxCell>
        <mxCell id="OvjvtxKpR9DoMGcmtZmM-42" style="rounded=0;orthogonalLoop=1;jettySize=auto;html=1;entryX=1;entryY=0;entryDx=0;entryDy=0;endArrow=none;endFill=0;" edge="1" parent="1" source="OvjvtxKpR9DoMGcmtZmM-5" target="OvjvtxKpR9DoMGcmtZmM-41">
          <mxGeometry relative="1" as="geometry">
            <mxPoint x="790" y="370" as="sourcePoint" />
            <mxPoint x="540" y="530" as="targetPoint" />
          </mxGeometry>
        </mxCell>
      </root>
    </mxGraphModel>
  </diagram>
</mxfile>
